 <svg
      aria-label="teammate-stars-logo"
      fill="none"
      height="18"
      role="img"
      viewBox="0 0 18 18"
      width="18"
      xmlns="http://www.w3.org/2000/svg"
    >
      <path
        d="M16.8117 7.56764C13.6908 6.63706 13.03 5.97623 12.099 2.85448C12.02 2.58956 11.7767 2.40814 11.5 2.40814C11.2232 2.40814 10.98 2.58964 10.901 2.85448C9.96995 5.97623 9.30912 6.63706 6.18821 7.56764C5.92287 7.64656 5.74146 7.89031 5.74146 8.16664C5.74146 8.44298 5.92296 8.68664 6.18821 8.76564C9.30912 9.69623 9.96995 10.3571 10.901 13.4788C10.9799 13.7437 11.2232 13.9251 11.5 13.9251C11.7767 13.9251 12.02 13.7436 12.099 13.4788C13.03 10.3571 13.6908 9.69623 16.8117 8.76564C17.077 8.68673 17.2585 8.44298 17.2585 8.16664C17.2585 7.89031 17.077 7.64664 16.8117 7.56764Z"
        fill="#57DC1C"
      />
      <path
        d="M6.2396 3.28382C4.67877 2.81832 4.34835 2.48791 3.88285 0.927074C3.8031 0.662574 3.36369 0.662574 3.28385 0.927074C2.81835 2.48791 2.48793 2.81832 0.927102 3.28382C0.795268 3.32332 0.704102 3.44499 0.704102 3.58332C0.704102 3.72166 0.795268 3.84332 0.927102 3.88282C2.48793 4.34832 2.81835 4.67874 3.28385 6.23957C3.32377 6.37182 3.44502 6.46257 3.58335 6.46257C3.72168 6.46257 3.84293 6.37182 3.88285 6.23957C4.34835 4.67874 4.67877 4.34832 6.2396 3.88282C6.37143 3.84332 6.4626 3.72166 6.4626 3.58332C6.4626 3.44499 6.37143 3.32332 6.2396 3.28382Z"
        fill="#57DC1C"
      />
      <path
        d="M7.90629 14.1171C6.34545 13.6516 6.01504 13.3212 5.54954 11.7604C5.46979 11.4959 5.03037 11.4959 4.95054 11.7604C4.48504 13.3212 4.15462 13.6516 2.59379 14.1171C2.46196 14.1566 2.37079 14.2783 2.37079 14.4166C2.37079 14.555 2.46196 14.6766 2.59379 14.7161C4.15462 15.1816 4.48504 15.5121 4.95054 17.0729C4.99046 17.2051 5.11171 17.2959 5.25004 17.2959C5.38837 17.2959 5.50962 17.2051 5.54954 17.0729C6.01504 15.5121 6.34545 15.1816 7.90629 14.7161C8.03812 14.6766 8.12929 14.555 8.12929 14.4166C8.12929 14.2783 8.03812 14.1566 7.90629 14.1171Z"
        fill="#57DC1C"
      />
    </svg>